<?xml version="1.0" encoding="UTF-8"?>
<!-- Generator: Adobe Illustrator 24.1.2, SVG Export Plug-In . SVG Version: 6.00 Build 0)  -->
<svg version="1.1" id="Layer_1" xmlns="http://www.w3.org/2000/svg" xmlns:xlink="http://www.w3.org/1999/xlink" x="0px" y="0px" viewBox="0 0 56.3 57" style="enable-background:new 0 0 56.3 57;" xml:space="preserve">
<style type="text/css">
	.st0{fill-rule:evenodd;clip-rule:evenodd;fill:#A0DBE9;}
	.st1{filter:url(#Adobe_OpacityMaskFilter);}
	.st2{fill-rule:evenodd;clip-rule:evenodd;fill:#FFFFFF;}
	.st3{mask:url(#mask-2_1_);fill-rule:evenodd;clip-rule:evenodd;fill:#F8C43F;}
	.st4{fill-rule:evenodd;clip-rule:evenodd;fill:#333548;}
	.st5{fill-rule:evenodd;clip-rule:evenodd;fill:#E9787E;}
	.st6{fill-rule:evenodd;clip-rule:evenodd;fill:#A9DACA;}
	.st7{fill-rule:evenodd;clip-rule:evenodd;fill:#F8AF94;}
	.st8{filter:url(#Adobe_OpacityMaskFilter_1_);}
	.st9{mask:url(#mask-4_1_);fill-rule:evenodd;clip-rule:evenodd;fill:#6FCEED;}
</style>
<desc>Created with Sketch.</desc>
<g id="Page-1">
	<g id="Artboard" transform="translate(-26.000000, -35.000000)">
		<g id="podium-eductation-logo" transform="translate(26.000000, 35.000000)">
			<path id="Fill-1" class="st0" d="M49.2,21.4h-7.9c-3.4,0-6.2-2.8-6.2-6.2V7.3c0-3.9-3.2-7-7-7l0,0c-3.9,0-7,3.2-7,7V20     c0,0.4,0,0.9,0.1,1.3c1.6,0.1,3.2,0.5,4.7,1.2c1.8,0.8,3.5,1.9,4.9,3.3c1.4,1.4,2.5,3.1,3.3,4.9c0.6,1.5,1,3.1,1.2,4.7     c0.4,0,0.9,0.1,1.3,0.1h12.7c3.9,0,7-3.2,7-7C56.3,24.6,53.1,21.4,49.2,21.4"/>
			<g id="Group-5" transform="translate(0.000000, 21.141600)">
				<g id="Clip-4">
				</g>
				<defs>
					<filter id="Adobe_OpacityMaskFilter" filterUnits="userSpaceOnUse" x="0" y="0.2" width="35.2" height="35.2">
						<feColorMatrix type="matrix" values="1 0 0 0 0  0 1 0 0 0  0 0 1 0 0  0 0 0 1 0"/>
					</filter>
				</defs>
				<mask maskUnits="userSpaceOnUse" x="0" y="0.2" width="35.2" height="35.2" id="mask-2_1_">
					<g class="st1">
						<polygon id="path-1_1_" class="st2" points="0,0.2 35.2,0.2 35.2,35.4 0,35.4       "/>
					</g>
				</mask>
				<path id="Fill-3" class="st3" d="M25.6,9.9c-1.4-1.4-2.5-3.1-3.3-4.9c-0.6-1.5-1-3.1-1.2-4.7c-0.4,0-0.9-0.1-1.3-0.1H7      c-3.9,0-7,3.2-7,7c0,3.9,3.2,7,7,7H15c3.4,0,6.2,2.8,6.2,6.2v7.9c0,3.9,3.2,7,7,7c3.9,0,7-3.2,7-7V15.7c0-0.4,0-0.9-0.1-1.3      c-1.6-0.1-3.2-0.5-4.7-1.2C28.6,12.4,27,11.3,25.6,9.9"/>
			</g>
			<path id="Fill-6" class="st4" d="M30.7,25.8c-1.4-1.4-3.1-2.5-4.9-3.3c-1.5-0.6-3.1-1-4.7-1.2c0.1,1.6,0.5,3.2,1.2,4.7     c0.8,1.8,1.9,3.5,3.3,4.9c1.4,1.4,3.1,2.5,4.9,3.3c1.5,0.6,3.1,1,4.7,1.2c-0.1-1.6-0.5-3.2-1.2-4.7     C33.2,28.9,32.1,27.3,30.7,25.8"/>
			<path id="Fill-8" class="st5" d="M56.3,28.5c0,3.9-3.2,7-7,7s-7-3.2-7-7c0-3.9,3.2-7,7-7S56.3,24.6,56.3,28.5"/>
			<path id="Fill-10" class="st6" d="M35.2,49.5c0,3.9-3.2,7-7,7s-7-3.2-7-7c0-3.9,3.2-7,7-7S35.2,45.6,35.2,49.5"/>
			<path id="Fill-12" class="st7" d="M14.1,28.3c0,3.9-3.2,7-7,7c-3.9,0-7-3.2-7-7s3.2-7,7-7C10.9,21.3,14.1,24.5,14.1,28.3"/>
			<g id="Group-16" transform="translate(21.000000, 0.141600)">
				<g id="Clip-15">
				</g>
				<defs>
					<filter id="Adobe_OpacityMaskFilter_1_" filterUnits="userSpaceOnUse" x="0" y="0.2" width="14.1" height="14.1">
						<feColorMatrix type="matrix" values="1 0 0 0 0  0 1 0 0 0  0 0 1 0 0  0 0 0 1 0"/>
					</filter>
				</defs>
				<mask maskUnits="userSpaceOnUse" x="0" y="0.2" width="14.1" height="14.1" id="mask-4_1_">
					<g class="st8">
						<polygon id="path-3_1_" class="st2" points="0,0.2 14.1,0.2 14.1,14.2 0,14.2       "/>
					</g>
				</mask>
				<path id="Fill-14" class="st9" d="M14.1,7.2c0,3.9-3.2,7-7,7c-3.9,0-7-3.2-7-7s3.2-7,7-7C10.9,0.2,14.1,3.3,14.1,7.2"/>
			</g>
		</g>
	</g>
</g>
</svg>